<?xml version="1.0" encoding="UTF-8"?>
<svg xmlns="http://www.w3.org/2000/svg" xmlns:xlink="http://www.w3.org/1999/xlink" width="38pt" height="30.33pt" viewBox="0 0 38 30.33" version="1.1">
<defs>
<clipPath id="clip1">
  <path d="M 21 28 L 24 28 L 24 30.328125 L 21 30.328125 Z M 21 28 "/>
</clipPath>
</defs>
<g id="surface1">
<path style=" stroke:none;fill-rule:nonzero;fill:rgb(32.199097%,56.898499%,79.199219%);fill-opacity:1;" d="M 26.933594 1.796875 C 26.785156 2.355469 26.210938 2.6875 25.652344 2.539063 C 25.09375 2.390625 24.761719 1.816406 24.910156 1.257813 C 25.0625 0.695313 25.636719 0.367188 26.195313 0.515625 C 26.753906 0.664063 27.085938 1.238281 26.933594 1.796875 "/>
<path style=" stroke:none;fill-rule:nonzero;fill:rgb(32.199097%,56.898499%,79.199219%);fill-opacity:1;" d="M 25.570313 5.539063 C 25.46875 5.910156 25.089844 6.132813 24.714844 6.03125 C 24.34375 5.933594 24.125 5.550781 24.222656 5.179688 C 24.324219 4.808594 24.707031 4.585938 25.078125 4.683594 C 25.449219 4.785156 25.671875 5.167969 25.570313 5.539063 "/>
<path style=" stroke:none;fill-rule:nonzero;fill:rgb(32.199097%,56.898499%,79.199219%);fill-opacity:1;" d="M 24.554688 8.476563 C 24.488281 8.734375 24.226563 8.882813 23.96875 8.816406 C 23.714844 8.746094 23.566406 8.484375 23.632813 8.230469 C 23.703125 7.976563 23.964844 7.824219 24.21875 7.890625 C 24.472656 7.960938 24.625 8.222656 24.554688 8.476563 "/>
<path style=" stroke:none;fill-rule:nonzero;fill:rgb(32.199097%,56.898499%,79.199219%);fill-opacity:1;" d="M 23.773438 10.765625 C 23.726563 10.933594 23.554688 11.035156 23.386719 10.988281 C 23.21875 10.945313 23.121094 10.773438 23.167969 10.605469 C 23.210938 10.4375 23.382813 10.335938 23.550781 10.382813 C 23.71875 10.425781 23.820313 10.597656 23.773438 10.765625 "/>
<path style=" stroke:none;fill-rule:nonzero;fill:rgb(32.199097%,56.898499%,79.199219%);fill-opacity:1;" d="M 30.234375 3.460938 C 29.945313 3.960938 29.304688 4.132813 28.804688 3.84375 C 28.304688 3.554688 28.132813 2.914063 28.421875 2.414063 C 28.710938 1.914063 29.351563 1.742188 29.851563 2.03125 C 30.351563 2.320313 30.527344 2.960938 30.234375 3.460938 "/>
<path style=" stroke:none;fill-rule:nonzero;fill:rgb(32.199097%,56.898499%,79.199219%);fill-opacity:1;" d="M 27.949219 6.722656 C 27.757813 7.054688 27.332031 7.167969 26.996094 6.976563 C 26.664063 6.785156 26.550781 6.359375 26.742188 6.023438 C 26.933594 5.691406 27.359375 5.578125 27.695313 5.769531 C 28.027344 5.960938 28.140625 6.386719 27.949219 6.722656 "/>
<path style=" stroke:none;fill-rule:nonzero;fill:rgb(32.199097%,56.898499%,79.199219%);fill-opacity:1;" d="M 26.210938 9.296875 C 26.078125 9.527344 25.785156 9.605469 25.554688 9.472656 C 25.328125 9.339844 25.25 9.046875 25.382813 8.820313 C 25.511719 8.589844 25.804688 8.511719 26.035156 8.644531 C 26.261719 8.777344 26.339844 9.066406 26.210938 9.296875 "/>
<path style=" stroke:none;fill-rule:nonzero;fill:rgb(32.199097%,56.898499%,79.199219%);fill-opacity:1;" d="M 24.859375 11.304688 C 24.773438 11.457031 24.582031 11.507813 24.429688 11.421875 C 24.28125 11.332031 24.226563 11.140625 24.316406 10.992188 C 24.402344 10.839844 24.59375 10.789063 24.746094 10.875 C 24.894531 10.964844 24.949219 11.15625 24.859375 11.304688 "/>
<path style=" stroke:none;fill-rule:nonzero;fill:rgb(4.299927%,23.098755%,46.699524%);fill-opacity:1;" d="M 33.144531 6.074219 C 32.652344 6.566406 31.851563 6.566406 31.359375 6.074219 C 30.867188 5.582031 30.867188 4.78125 31.359375 4.289063 C 31.851563 3.796875 32.652344 3.796875 33.144531 4.289063 C 33.640625 4.78125 33.640625 5.582031 33.144531 6.074219 "/>
<path style=" stroke:none;fill-rule:nonzero;fill:rgb(4.299927%,23.098755%,46.699524%);fill-opacity:1;" d="M 30.03125 8.570313 C 29.707031 8.890625 29.1875 8.890625 28.863281 8.570313 C 28.542969 8.246094 28.542969 7.726563 28.863281 7.402344 C 29.1875 7.082031 29.707031 7.082031 30.03125 7.402344 C 30.351563 7.726563 30.351563 8.246094 30.03125 8.570313 "/>
<path style=" stroke:none;fill-rule:nonzero;fill:rgb(4.299927%,23.098755%,46.699524%);fill-opacity:1;" d="M 27.59375 10.515625 C 27.40625 10.703125 27.105469 10.703125 26.917969 10.515625 C 26.730469 10.328125 26.730469 10.027344 26.917969 9.839844 C 27.105469 9.65625 27.40625 9.65625 27.59375 9.839844 C 27.78125 10.027344 27.78125 10.328125 27.59375 10.515625 "/>
<path style=" stroke:none;fill-rule:nonzero;fill:rgb(4.299927%,23.098755%,46.699524%);fill-opacity:1;" d="M 25.769531 12.109375 C 25.648438 12.230469 25.449219 12.230469 25.328125 12.109375 C 25.203125 11.984375 25.203125 11.785156 25.328125 11.664063 C 25.449219 11.539063 25.648438 11.539063 25.769531 11.664063 C 25.894531 11.785156 25.894531 11.984375 25.769531 12.109375 "/>
<path style=" stroke:none;fill-rule:nonzero;fill:rgb(4.299927%,23.098755%,46.699524%);fill-opacity:1;" d="M 35.210938 9.34375 C 34.527344 9.738281 33.652344 9.503906 33.257813 8.820313 C 32.859375 8.136719 33.097656 7.261719 33.78125 6.863281 C 34.464844 6.46875 35.339844 6.707031 35.734375 7.390625 C 36.132813 8.074219 35.898438 8.949219 35.210938 9.34375 "/>
<path style=" stroke:none;fill-rule:nonzero;fill:rgb(4.299927%,23.098755%,46.699524%);fill-opacity:1;" d="M 31.503906 10.859375 C 31.082031 11.105469 30.535156 10.957031 30.289063 10.53125 C 30.046875 10.109375 30.191406 9.566406 30.617188 9.320313 C 31.039063 9.074219 31.585938 9.21875 31.832031 9.644531 C 32.074219 10.070313 31.929688 10.613281 31.503906 10.859375 "/>
<path style=" stroke:none;fill-rule:nonzero;fill:rgb(4.299927%,23.098755%,46.699524%);fill-opacity:1;" d="M 28.738281 12.269531 C 28.390625 12.472656 27.945313 12.351563 27.742188 12.003906 C 27.542969 11.65625 27.660156 11.207031 28.011719 11.007813 C 28.359375 10.804688 28.804688 10.925781 29.007813 11.273438 C 29.210938 11.621094 29.089844 12.070313 28.738281 12.269531 "/>
<path style=" stroke:none;fill-rule:nonzero;fill:rgb(4.299927%,23.098755%,46.699524%);fill-opacity:1;" d="M 26.441406 13.117188 C 26.292969 13.207031 26.097656 13.152344 26.011719 13.003906 C 25.925781 12.851563 25.976563 12.660156 26.128906 12.574219 C 26.277344 12.488281 26.46875 12.539063 26.558594 12.6875 C 26.644531 12.839844 26.59375 13.03125 26.441406 13.117188 "/>
<path style=" stroke:none;fill-rule:nonzero;fill:rgb(4.299927%,23.098755%,46.699524%);fill-opacity:1;" d="M 36.300781 12.980469 C 35.488281 13.199219 34.652344 12.714844 34.4375 11.902344 C 34.21875 11.09375 34.699219 10.257813 35.511719 10.039063 C 36.324219 9.820313 37.160156 10.304688 37.378906 11.117188 C 37.59375 11.929688 37.113281 12.761719 36.300781 12.980469 "/>
<path style=" stroke:none;fill-rule:nonzero;fill:rgb(4.299927%,23.098755%,46.699524%);fill-opacity:1;" d="M 32.324219 13.464844 C 31.808594 13.601563 31.285156 13.296875 31.144531 12.785156 C 31.011719 12.273438 31.3125 11.746094 31.828125 11.609375 C 32.339844 11.472656 32.863281 11.777344 33.003906 12.289063 C 33.140625 12.800781 32.835938 13.328125 32.324219 13.464844 "/>
<path style=" stroke:none;fill-rule:nonzero;fill:rgb(4.299927%,23.098755%,46.699524%);fill-opacity:1;" d="M 29.277344 14.078125 C 28.871094 14.1875 28.449219 13.945313 28.339844 13.539063 C 28.230469 13.128906 28.472656 12.710938 28.882813 12.601563 C 29.289063 12.492188 29.710938 12.734375 29.820313 13.140625 C 29.925781 13.550781 29.683594 13.96875 29.277344 14.078125 "/>
<path style=" stroke:none;fill-rule:nonzero;fill:rgb(4.299927%,23.098755%,46.699524%);fill-opacity:1;" d="M 26.871094 14.421875 C 26.617188 14.488281 26.359375 14.339844 26.289063 14.085938 C 26.222656 13.832031 26.371094 13.574219 26.625 13.507813 C 26.878906 13.441406 27.136719 13.589844 27.207031 13.84375 C 27.273438 14.09375 27.121094 14.355469 26.871094 14.421875 "/>
<path style=" stroke:none;fill-rule:nonzero;fill:rgb(40.79895%,45.098877%,67.098999%);fill-opacity:1;" d="M 36.386719 16.777344 C 35.496094 16.777344 34.777344 16.054688 34.777344 15.164063 C 34.777344 14.273438 35.496094 13.550781 36.386719 13.550781 C 37.277344 13.550781 38 14.273438 38 15.164063 C 38 16.054688 37.277344 16.777344 36.386719 16.777344 "/>
<path style=" stroke:none;fill-rule:nonzero;fill:rgb(40.79895%,45.098877%,67.098999%);fill-opacity:1;" d="M 32.421875 16.277344 C 31.804688 16.277344 31.304688 15.777344 31.304688 15.164063 C 31.304688 14.546875 31.804688 14.050781 32.421875 14.050781 C 33.035156 14.050781 33.535156 14.546875 33.535156 15.164063 C 33.535156 15.777344 33.035156 16.277344 32.421875 16.277344 "/>
<path style=" stroke:none;fill-rule:nonzero;fill:rgb(40.79895%,45.098877%,67.098999%);fill-opacity:1;" d="M 29.320313 15.96875 C 28.875 15.96875 28.511719 15.609375 28.511719 15.164063 C 28.511719 14.71875 28.875 14.359375 29.320313 14.359375 C 29.765625 14.359375 30.128906 14.71875 30.128906 15.164063 C 30.128906 15.609375 29.765625 15.96875 29.320313 15.96875 "/>
<path style=" stroke:none;fill-rule:nonzero;fill:rgb(40.79895%,45.098877%,67.098999%);fill-opacity:1;" d="M 26.90625 15.691406 C 26.613281 15.691406 26.378906 15.457031 26.378906 15.164063 C 26.378906 14.871094 26.613281 14.632813 26.90625 14.632813 C 27.199219 14.632813 27.433594 14.871094 27.433594 15.164063 C 27.433594 15.457031 27.199219 15.691406 26.90625 15.691406 "/>
<path style=" stroke:none;fill-rule:nonzero;fill:rgb(40.79895%,45.098877%,67.098999%);fill-opacity:1;" d="M 33.816406 23.402344 C 33.164063 23.027344 32.941406 22.191406 33.316406 21.542969 C 33.695313 20.890625 34.527344 20.667969 35.175781 21.046875 C 35.828125 21.421875 36.050781 22.253906 35.675781 22.902344 C 35.296875 23.554688 34.464844 23.777344 33.816406 23.402344 "/>
<path style=" stroke:none;fill-rule:nonzero;fill:rgb(40.79895%,45.098877%,67.098999%);fill-opacity:1;" d="M 30.554688 21.117188 C 30.070313 20.835938 29.90625 20.21875 30.183594 19.734375 C 30.464844 19.25 31.082031 19.082031 31.566406 19.363281 C 32.050781 19.640625 32.21875 20.261719 31.9375 20.746094 C 31.65625 21.230469 31.039063 21.394531 30.554688 21.117188 "/>
<path style=" stroke:none;fill-rule:nonzero;fill:rgb(40.79895%,45.098877%,67.098999%);fill-opacity:1;" d="M 28.023438 19.296875 C 27.6875 19.105469 27.570313 18.671875 27.765625 18.335938 C 27.960938 18 28.390625 17.886719 28.726563 18.078125 C 29.066406 18.273438 29.179688 18.703125 28.984375 19.039063 C 28.792969 19.378906 28.359375 19.492188 28.023438 19.296875 "/>
<path style=" stroke:none;fill-rule:nonzero;fill:rgb(40.79895%,45.098877%,67.098999%);fill-opacity:1;" d="M 26.128906 17.753906 C 25.976563 17.667969 25.925781 17.476563 26.011719 17.324219 C 26.101563 17.175781 26.292969 17.121094 26.441406 17.210938 C 26.59375 17.296875 26.644531 17.488281 26.558594 17.640625 C 26.472656 17.789063 26.277344 17.84375 26.128906 17.753906 "/>
<path style=" stroke:none;fill-rule:nonzero;fill:rgb(71.798706%,8.599854%,43.899536%);fill-opacity:1;" d="M 31.34375 26.054688 C 30.84375 25.554688 30.84375 24.742188 31.34375 24.242188 C 31.847656 23.738281 32.660156 23.738281 33.160156 24.242188 C 33.660156 24.742188 33.660156 25.554688 33.160156 26.054688 C 32.660156 26.554688 31.847656 26.554688 31.34375 26.054688 "/>
<path style=" stroke:none;fill-rule:nonzero;fill:rgb(71.798706%,8.599854%,43.899536%);fill-opacity:1;" d="M 28.800781 22.988281 C 28.441406 22.632813 28.441406 22.050781 28.800781 21.695313 C 29.15625 21.335938 29.738281 21.335938 30.09375 21.695313 C 30.453125 22.050781 30.453125 22.632813 30.09375 22.988281 C 29.738281 23.347656 29.15625 23.347656 28.800781 22.988281 "/>
<path style=" stroke:none;fill-rule:nonzero;fill:rgb(71.798706%,8.599854%,43.899536%);fill-opacity:1;" d="M 26.800781 20.605469 C 26.550781 20.351563 26.550781 19.945313 26.800781 19.695313 C 27.050781 19.445313 27.457031 19.445313 27.710938 19.695313 C 27.960938 19.945313 27.960938 20.351563 27.710938 20.605469 C 27.457031 20.855469 27.050781 20.855469 26.800781 20.605469 "/>
<path style=" stroke:none;fill-rule:nonzero;fill:rgb(71.798706%,8.599854%,43.899536%);fill-opacity:1;" d="M 25.328125 18.664063 C 25.203125 18.542969 25.203125 18.34375 25.328125 18.222656 C 25.449219 18.097656 25.648438 18.097656 25.769531 18.222656 C 25.894531 18.34375 25.894531 18.542969 25.769531 18.664063 C 25.648438 18.789063 25.449219 18.789063 25.328125 18.664063 "/>
<path style=" stroke:none;fill-rule:nonzero;fill:rgb(71.798706%,8.599854%,43.899536%);fill-opacity:1;" d="M 28.285156 27.992188 C 27.957031 27.417969 28.152344 26.679688 28.726563 26.347656 C 29.304688 26.015625 30.039063 26.214844 30.371094 26.789063 C 30.703125 27.363281 30.503906 28.097656 29.929688 28.433594 C 29.355469 28.765625 28.617188 28.566406 28.285156 27.992188 "/>
<path style=" stroke:none;fill-rule:nonzero;fill:rgb(71.798706%,8.599854%,43.899536%);fill-opacity:1;" d="M 26.601563 24.382813 C 26.367188 23.972656 26.507813 23.449219 26.917969 23.214844 C 27.328125 22.976563 27.847656 23.117188 28.085938 23.527344 C 28.324219 23.9375 28.183594 24.460938 27.773438 24.695313 C 27.363281 24.933594 26.839844 24.792969 26.601563 24.382813 "/>
<path style=" stroke:none;fill-rule:nonzero;fill:rgb(71.798706%,8.599854%,43.899536%);fill-opacity:1;" d="M 25.382813 21.507813 C 25.25 21.28125 25.328125 20.988281 25.554688 20.855469 C 25.785156 20.722656 26.078125 20.800781 26.210938 21.03125 C 26.339844 21.257813 26.261719 21.550781 26.035156 21.683594 C 25.804688 21.816406 25.511719 21.738281 25.382813 21.507813 "/>
<path style=" stroke:none;fill-rule:nonzero;fill:rgb(71.798706%,8.599854%,43.899536%);fill-opacity:1;" d="M 24.316406 19.335938 C 24.226563 19.1875 24.28125 18.992188 24.429688 18.90625 C 24.582031 18.820313 24.773438 18.871094 24.859375 19.023438 C 24.949219 19.171875 24.894531 19.363281 24.746094 19.453125 C 24.59375 19.539063 24.402344 19.488281 24.316406 19.335938 "/>
<path style=" stroke:none;fill-rule:nonzero;fill:rgb(83.099365%,34.498596%,35.299683%);fill-opacity:1;" d="M 24.910156 29.070313 C 24.761719 28.511719 25.09375 27.9375 25.652344 27.789063 C 26.210938 27.640625 26.785156 27.96875 26.933594 28.53125 C 27.085938 29.089844 26.753906 29.664063 26.195313 29.8125 C 25.636719 29.964844 25.0625 29.632813 24.910156 29.070313 "/>
<path style=" stroke:none;fill-rule:nonzero;fill:rgb(83.099365%,34.498596%,35.299683%);fill-opacity:1;" d="M 24.222656 25.148438 C 24.125 24.777344 24.34375 24.394531 24.714844 24.296875 C 25.085938 24.195313 25.46875 24.417969 25.570313 24.789063 C 25.667969 25.160156 25.449219 25.542969 25.078125 25.640625 C 24.703125 25.742188 24.324219 25.519531 24.222656 25.148438 "/>
<path style=" stroke:none;fill-rule:nonzero;fill:rgb(83.099365%,34.498596%,35.299683%);fill-opacity:1;" d="M 23.632813 22.097656 C 23.566406 21.84375 23.714844 21.582031 23.96875 21.511719 C 24.226563 21.445313 24.488281 21.59375 24.554688 21.851563 C 24.625 22.105469 24.472656 22.367188 24.21875 22.4375 C 23.964844 22.503906 23.699219 22.351563 23.632813 22.097656 "/>
<path style=" stroke:none;fill-rule:nonzero;fill:rgb(83.099365%,34.498596%,35.299683%);fill-opacity:1;" d="M 23.164063 19.722656 C 23.121094 19.554688 23.222656 19.382813 23.390625 19.339844 C 23.554688 19.292969 23.726563 19.394531 23.773438 19.5625 C 23.816406 19.730469 23.71875 19.902344 23.550781 19.945313 C 23.382813 19.992188 23.210938 19.890625 23.164063 19.722656 "/>
<g clip-path="url(#clip1)" clip-rule="nonzero">
<path style=" stroke:none;fill-rule:nonzero;fill:rgb(83.099365%,34.498596%,35.299683%);fill-opacity:1;" d="M 21.222656 29.28125 C 21.222656 28.703125 21.691406 28.234375 22.269531 28.234375 C 22.847656 28.234375 23.316406 28.703125 23.316406 29.28125 C 23.316406 29.859375 22.847656 30.332031 22.269531 30.332031 C 21.691406 30.332031 21.222656 29.859375 21.222656 29.28125 "/>
</g>
<path style=" stroke:none;fill-rule:nonzero;fill:rgb(83.099365%,34.498596%,35.299683%);fill-opacity:1;" d="M 21.574219 25.3125 C 21.574219 24.929688 21.882813 24.617188 22.269531 24.617188 C 22.65625 24.617188 22.96875 24.929688 22.96875 25.3125 C 22.96875 25.699219 22.65625 26.011719 22.269531 26.011719 C 21.882813 26.011719 21.574219 25.699219 21.574219 25.3125 "/>
<path style=" stroke:none;fill-rule:nonzero;fill:rgb(83.099365%,34.498596%,35.299683%);fill-opacity:1;" d="M 21.792969 22.214844 C 21.792969 21.949219 22.007813 21.734375 22.269531 21.734375 C 22.53125 21.734375 22.746094 21.949219 22.746094 22.214844 C 22.746094 22.480469 22.53125 22.691406 22.269531 22.691406 C 22.007813 22.691406 21.792969 22.480469 21.792969 22.214844 "/>
<path style=" stroke:none;fill-rule:nonzero;fill:rgb(83.099365%,34.498596%,35.299683%);fill-opacity:1;" d="M 21.957031 19.800781 C 21.957031 19.625 22.097656 19.488281 22.269531 19.488281 C 22.441406 19.488281 22.585938 19.625 22.585938 19.800781 C 22.585938 19.976563 22.441406 20.113281 22.269531 20.113281 C 22.097656 20.113281 21.957031 19.976563 21.957031 19.800781 "/>
<path style=" stroke:none;fill-rule:nonzero;fill:rgb(97.299194%,61.199951%,17.298889%);fill-opacity:1;" d="M 17.601563 28.53125 C 17.753906 27.96875 18.328125 27.640625 18.886719 27.789063 C 19.445313 27.9375 19.777344 28.511719 19.628906 29.070313 C 19.476563 29.632813 18.902344 29.964844 18.34375 29.8125 C 17.785156 29.664063 17.453125 29.089844 17.601563 28.53125 "/>
<path style=" stroke:none;fill-rule:nonzero;fill:rgb(97.299194%,61.199951%,17.298889%);fill-opacity:1;" d="M 18.96875 24.789063 C 19.070313 24.417969 19.453125 24.195313 19.824219 24.296875 C 20.195313 24.394531 20.414063 24.777344 20.316406 25.148438 C 20.214844 25.519531 19.835938 25.742188 19.460938 25.644531 C 19.089844 25.542969 18.867188 25.160156 18.96875 24.789063 "/>
<path style=" stroke:none;fill-rule:nonzero;fill:rgb(97.299194%,61.199951%,17.298889%);fill-opacity:1;" d="M 19.984375 21.851563 C 20.050781 21.59375 20.3125 21.445313 20.570313 21.511719 C 20.824219 21.582031 20.972656 21.84375 20.90625 22.097656 C 20.835938 22.351563 20.578125 22.503906 20.320313 22.433594 C 20.066406 22.367188 19.914063 22.105469 19.984375 21.851563 "/>
<path style=" stroke:none;fill-rule:nonzero;fill:rgb(97.299194%,61.199951%,17.298889%);fill-opacity:1;" d="M 20.816406 19.574219 C 20.851563 19.433594 20.996094 19.347656 21.136719 19.386719 C 21.277344 19.425781 21.363281 19.570313 21.324219 19.710938 C 21.289063 19.851563 21.140625 19.933594 21 19.898438 C 20.859375 19.859375 20.777344 19.714844 20.816406 19.574219 "/>
<path style=" stroke:none;fill-rule:nonzero;fill:rgb(97.299194%,61.199951%,17.298889%);fill-opacity:1;" d="M 14.414063 26.929688 C 14.667969 26.492188 15.230469 26.339844 15.671875 26.59375 C 16.109375 26.847656 16.261719 27.410156 16.007813 27.851563 C 15.753906 28.289063 15.191406 28.441406 14.75 28.1875 C 14.308594 27.933594 14.160156 27.371094 14.414063 26.929688 "/>
<path style=" stroke:none;fill-rule:nonzero;fill:rgb(97.299194%,61.199951%,17.298889%);fill-opacity:1;" d="M 16.699219 23.667969 C 16.855469 23.394531 17.207031 23.300781 17.480469 23.457031 C 17.753906 23.617188 17.847656 23.96875 17.691406 24.242188 C 17.53125 24.515625 17.179688 24.609375 16.90625 24.449219 C 16.636719 24.292969 16.539063 23.941406 16.699219 23.667969 "/>
<path style=" stroke:none;fill-rule:nonzero;fill:rgb(97.299194%,61.199951%,17.298889%);fill-opacity:1;" d="M 18.378906 21.058594 C 18.496094 20.859375 18.753906 20.789063 18.953125 20.90625 C 19.15625 21.023438 19.222656 21.28125 19.109375 21.480469 C 18.992188 21.679688 18.734375 21.75 18.535156 21.632813 C 18.332031 21.515625 18.265625 21.261719 18.378906 21.058594 "/>
<path style=" stroke:none;fill-rule:nonzero;fill:rgb(97.299194%,61.199951%,17.298889%);fill-opacity:1;" d="M 19.734375 19.054688 C 19.800781 18.933594 19.957031 18.894531 20.078125 18.960938 C 20.195313 19.03125 20.238281 19.183594 20.167969 19.304688 C 20.101563 19.425781 19.945313 19.464844 19.824219 19.398438 C 19.707031 19.328125 19.664063 19.171875 19.734375 19.054688 "/>
<path style=" stroke:none;fill-rule:nonzero;fill:rgb(99.198914%,77.2995%,10.598755%);fill-opacity:1;" d="M 11.691406 24.550781 C 12.019531 24.222656 12.554688 24.222656 12.882813 24.550781 C 13.210938 24.878906 13.210938 25.414063 12.882813 25.742188 C 12.554688 26.070313 12.019531 26.070313 11.691406 25.742188 C 11.363281 25.414063 11.363281 24.878906 11.691406 24.550781 "/>
<path style=" stroke:none;fill-rule:nonzero;fill:rgb(99.198914%,77.2995%,10.598755%);fill-opacity:1;" d="M 14.742188 21.992188 C 14.933594 21.800781 15.246094 21.800781 15.441406 21.992188 C 15.632813 22.183594 15.632813 22.5 15.441406 22.691406 C 15.246094 22.882813 14.933594 22.882813 14.742188 22.691406 C 14.550781 22.5 14.550781 22.183594 14.742188 21.992188 "/>
<path style=" stroke:none;fill-rule:nonzero;fill:rgb(99.198914%,77.2995%,10.598755%);fill-opacity:1;" d="M 17.046875 19.910156 C 17.175781 19.777344 17.390625 19.777344 17.523438 19.910156 C 17.65625 20.042969 17.65625 20.257813 17.523438 20.390625 C 17.390625 20.519531 17.175781 20.519531 17.046875 20.390625 C 16.914063 20.257813 16.914063 20.042969 17.046875 19.910156 "/>
<path style=" stroke:none;fill-rule:nonzero;fill:rgb(99.198914%,77.2995%,10.598755%);fill-opacity:1;" d="M 9.636719 21.515625 C 10.027344 21.292969 10.523438 21.425781 10.75 21.816406 C 10.972656 22.203125 10.839844 22.703125 10.449219 22.929688 C 10.058594 23.15625 9.5625 23.019531 9.335938 22.628906 C 9.113281 22.242188 9.246094 21.742188 9.636719 21.515625 "/>
<path style=" stroke:none;fill-rule:nonzero;fill:rgb(99.198914%,77.2995%,10.598755%);fill-opacity:1;" d="M 13.277344 19.890625 C 13.46875 19.78125 13.714844 19.847656 13.828125 20.039063 C 13.9375 20.230469 13.871094 20.476563 13.679688 20.585938 C 13.488281 20.699219 13.242188 20.632813 13.132813 20.441406 C 13.019531 20.246094 13.085938 20.003906 13.277344 19.890625 "/>
<path style=" stroke:none;fill-rule:nonzero;fill:rgb(99.198914%,77.2995%,10.598755%);fill-opacity:1;" d="M 15.992188 18.394531 C 16.15625 18.300781 16.363281 18.355469 16.460938 18.519531 C 16.554688 18.679688 16.496094 18.890625 16.335938 18.984375 C 16.171875 19.078125 15.960938 19.023438 15.867188 18.859375 C 15.773438 18.695313 15.832031 18.488281 15.992188 18.394531 "/>
<path style=" stroke:none;fill-rule:nonzero;fill:rgb(51.399231%,77.2995%,38.398743%);fill-opacity:1;" d="M 8.824219 10.800781 C 9.214844 10.90625 9.445313 11.308594 9.34375 11.699219 C 9.238281 12.089844 8.835938 12.324219 8.441406 12.21875 C 8.050781 12.113281 7.816406 11.710938 7.921875 11.320313 C 8.027344 10.925781 8.429688 10.695313 8.824219 10.800781 "/>
<path style=" stroke:none;fill-rule:nonzero;fill:rgb(51.399231%,77.2995%,38.398743%);fill-opacity:1;" d="M 10.410156 7.46875 C 10.761719 7.671875 10.882813 8.121094 10.679688 8.472656 C 10.476563 8.824219 10.027344 8.945313 9.675781 8.742188 C 9.324219 8.539063 9.203125 8.089844 9.40625 7.738281 C 9.609375 7.386719 10.058594 7.265625 10.410156 7.46875 "/>
<path style=" stroke:none;fill-rule:nonzero;fill:rgb(51.399231%,77.2995%,38.398743%);fill-opacity:1;" d="M 13.691406 9.722656 C 13.890625 9.839844 13.960938 10.097656 13.84375 10.300781 C 13.726563 10.5 13.46875 10.570313 13.269531 10.453125 C 13.066406 10.335938 12.996094 10.078125 13.113281 9.878906 C 13.230469 9.675781 13.488281 9.609375 13.691406 9.722656 "/>
<path style=" stroke:none;fill-rule:nonzero;fill:rgb(51.399231%,77.2995%,38.398743%);fill-opacity:1;" d="M 16.332031 11.347656 C 16.492188 11.441406 16.542969 11.644531 16.453125 11.804688 C 16.359375 11.964844 16.15625 12.019531 15.996094 11.929688 C 15.835938 11.835938 15.78125 11.632813 15.875 11.472656 C 15.964844 11.3125 16.171875 11.257813 16.332031 11.347656 "/>
<path style=" stroke:none;fill-rule:nonzero;fill:rgb(6.298828%,69.398499%,50.19989%);fill-opacity:1;" d="M 12.835938 4.632813 C 13.140625 4.933594 13.140625 5.425781 12.835938 5.730469 C 12.53125 6.035156 12.039063 6.035156 11.734375 5.730469 C 11.433594 5.425781 11.433594 4.933594 11.734375 4.632813 C 12.039063 4.328125 12.53125 4.328125 12.835938 4.632813 "/>
<path style=" stroke:none;fill-rule:nonzero;fill:rgb(6.298828%,69.398499%,50.19989%);fill-opacity:1;" d="M 15.445313 7.632813 C 15.640625 7.828125 15.640625 8.144531 15.445313 8.339844 C 15.25 8.535156 14.933594 8.535156 14.738281 8.339844 C 14.546875 8.144531 14.546875 7.828125 14.738281 7.632813 C 14.933594 7.441406 15.25 7.441406 15.445313 7.632813 "/>
<path style=" stroke:none;fill-rule:nonzero;fill:rgb(6.298828%,69.398499%,50.19989%);fill-opacity:1;" d="M 17.550781 9.910156 C 17.699219 10.058594 17.699219 10.296875 17.550781 10.445313 C 17.402344 10.59375 17.164063 10.59375 17.015625 10.445313 C 16.867188 10.296875 16.867188 10.058594 17.015625 9.910156 C 17.164063 9.765625 17.402344 9.765625 17.550781 9.910156 "/>
<path style=" stroke:none;fill-rule:nonzero;fill:rgb(6.298828%,69.398499%,50.19989%);fill-opacity:1;" d="M 16.007813 2.476563 C 16.261719 2.917969 16.113281 3.480469 15.671875 3.734375 C 15.230469 3.988281 14.667969 3.839844 14.414063 3.398438 C 14.160156 2.957031 14.308594 2.394531 14.75 2.140625 C 15.191406 1.886719 15.753906 2.035156 16.007813 2.476563 "/>
<path style=" stroke:none;fill-rule:nonzero;fill:rgb(6.298828%,69.398499%,50.19989%);fill-opacity:1;" d="M 17.695313 6.085938 C 17.851563 6.359375 17.757813 6.714844 17.484375 6.871094 C 17.207031 7.03125 16.855469 6.9375 16.695313 6.660156 C 16.535156 6.386719 16.628906 6.03125 16.90625 5.875 C 17.179688 5.714844 17.535156 5.808594 17.695313 6.085938 "/>
<path style=" stroke:none;fill-rule:nonzero;fill:rgb(6.298828%,69.398499%,50.19989%);fill-opacity:1;" d="M 19.105469 8.851563 C 19.21875 9.050781 19.152344 9.304688 18.953125 9.417969 C 18.753906 9.535156 18.5 9.464844 18.382813 9.265625 C 18.269531 9.066406 18.335938 8.8125 18.535156 8.699219 C 18.734375 8.582031 18.988281 8.652344 19.105469 8.851563 "/>
<path style=" stroke:none;fill-rule:nonzero;fill:rgb(6.298828%,69.398499%,50.19989%);fill-opacity:1;" d="M 20.148438 11.035156 C 20.210938 11.144531 20.175781 11.285156 20.066406 11.347656 C 19.957031 11.410156 19.816406 11.371094 19.753906 11.261719 C 19.691406 11.152344 19.726563 11.011719 19.835938 10.953125 C 19.945313 10.886719 20.085938 10.925781 20.148438 11.035156 "/>
<path style=" stroke:none;fill-rule:nonzero;fill:rgb(6.298828%,69.398499%,50.19989%);fill-opacity:1;" d="M 19.566406 1.273438 C 19.707031 1.796875 19.394531 2.335938 18.871094 2.476563 C 18.347656 2.617188 17.808594 2.304688 17.667969 1.78125 C 17.527344 1.257813 17.835938 0.71875 18.359375 0.578125 C 18.886719 0.4375 19.421875 0.75 19.566406 1.273438 "/>
<path style=" stroke:none;fill-rule:nonzero;fill:rgb(6.298828%,69.398499%,50.19989%);fill-opacity:1;" d="M 20.222656 5.203125 C 20.304688 5.523438 20.117188 5.851563 19.796875 5.9375 C 19.476563 6.023438 19.148438 5.835938 19.0625 5.515625 C 18.976563 5.195313 19.167969 4.867188 19.488281 4.78125 C 19.804688 4.695313 20.136719 4.882813 20.222656 5.203125 "/>
<path style=" stroke:none;fill-rule:nonzero;fill:rgb(6.298828%,69.398499%,50.19989%);fill-opacity:1;" d="M 20.90625 8.230469 C 20.972656 8.484375 20.824219 8.746094 20.570313 8.816406 C 20.3125 8.882813 20.050781 8.734375 19.984375 8.476563 C 19.914063 8.222656 20.066406 7.960938 20.320313 7.890625 C 20.578125 7.824219 20.839844 7.976563 20.90625 8.230469 "/>
<path style=" stroke:none;fill-rule:nonzero;fill:rgb(6.298828%,69.398499%,50.19989%);fill-opacity:1;" d="M 21.320313 10.617188 C 21.355469 10.757813 21.273438 10.898438 21.136719 10.933594 C 21 10.972656 20.855469 10.890625 20.820313 10.753906 C 20.785156 10.613281 20.863281 10.472656 21.003906 10.4375 C 21.140625 10.398438 21.28125 10.480469 21.320313 10.617188 "/>
<path style=" stroke:none;fill-rule:nonzero;fill:rgb(32.199097%,56.898499%,79.199219%);fill-opacity:1;" d="M 23.316406 1.046875 C 23.316406 1.625 22.847656 2.09375 22.269531 2.09375 C 21.691406 2.09375 21.222656 1.625 21.222656 1.046875 C 21.222656 0.46875 21.691406 -0.00390625 22.269531 -0.00390625 C 22.847656 -0.00390625 23.316406 0.46875 23.316406 1.046875 "/>
<path style=" stroke:none;fill-rule:nonzero;fill:rgb(32.199097%,56.898499%,79.199219%);fill-opacity:1;" d="M 22.96875 5.011719 C 22.96875 5.398438 22.65625 5.710938 22.269531 5.710938 C 21.886719 5.710938 21.570313 5.398438 21.570313 5.011719 C 21.570313 4.628906 21.886719 4.316406 22.269531 4.316406 C 22.65625 4.316406 22.96875 4.628906 22.96875 5.011719 "/>
<path style=" stroke:none;fill-rule:nonzero;fill:rgb(32.199097%,56.898499%,79.199219%);fill-opacity:1;" d="M 22.746094 8.113281 C 22.746094 8.378906 22.53125 8.589844 22.269531 8.589844 C 22.007813 8.589844 21.792969 8.378906 21.792969 8.113281 C 21.792969 7.851563 22.007813 7.636719 22.269531 7.636719 C 22.53125 7.636719 22.746094 7.851563 22.746094 8.113281 "/>
<path style=" stroke:none;fill-rule:nonzero;fill:rgb(32.199097%,56.898499%,79.199219%);fill-opacity:1;" d="M 22.585938 10.527344 C 22.585938 10.703125 22.441406 10.839844 22.269531 10.839844 C 22.097656 10.839844 21.957031 10.703125 21.957031 10.527344 C 21.957031 10.355469 22.097656 10.214844 22.269531 10.214844 C 22.441406 10.214844 22.585938 10.355469 22.585938 10.527344 "/>
<path style=" stroke:none;fill-rule:nonzero;fill:rgb(40.79895%,45.098877%,67.098999%);fill-opacity:1;" d="M 35.511719 20.289063 C 34.699219 20.070313 34.21875 19.234375 34.433594 18.425781 C 34.652344 17.609375 35.488281 17.128906 36.300781 17.347656 C 37.113281 17.5625 37.59375 18.398438 37.378906 19.210938 C 37.160156 20.023438 36.324219 20.507813 35.511719 20.289063 "/>
<path style=" stroke:none;fill-rule:nonzero;fill:rgb(40.79895%,45.098877%,67.098999%);fill-opacity:1;" d="M 31.808594 18.789063 C 31.257813 18.640625 30.929688 18.074219 31.078125 17.523438 C 31.226563 16.972656 31.789063 16.648438 32.339844 16.796875 C 32.894531 16.941406 33.21875 17.507813 33.070313 18.058594 C 32.921875 18.609375 32.359375 18.933594 31.808594 18.789063 "/>
<path style=" stroke:none;fill-rule:nonzero;fill:rgb(40.79895%,45.098877%,67.098999%);fill-opacity:1;" d="M 28.886719 17.710938 C 28.484375 17.605469 28.246094 17.195313 28.355469 16.792969 C 28.464844 16.394531 28.875 16.15625 29.273438 16.265625 C 29.671875 16.371094 29.910156 16.78125 29.804688 17.183594 C 29.695313 17.582031 29.285156 17.820313 28.886719 17.710938 "/>
<path style=" stroke:none;fill-rule:nonzero;fill:rgb(40.79895%,45.098877%,67.098999%);fill-opacity:1;" d="M 26.625 16.824219 C 26.371094 16.757813 26.21875 16.496094 26.285156 16.238281 C 26.355469 15.984375 26.617188 15.835938 26.871094 15.902344 C 27.128906 15.972656 27.277344 16.230469 27.210938 16.488281 C 27.140625 16.742188 26.878906 16.894531 26.625 16.824219 "/>
<path style=" stroke:none;fill-rule:nonzero;fill:rgb(20.399475%,8.198547%,35.299683%);fill-opacity:1;" d="M 11.613281 15.328125 C 11.613281 16.5 11.835938 16.761719 12.683594 16.683594 C 13.214844 16.632813 13.574219 16.335938 13.75 15.832031 C 13.941406 15.289063 13.835938 14.800781 13.441406 14.394531 C 13.097656 14.039063 12.679688 13.949219 12.210938 14.121094 C 11.550781 14.363281 11.578125 14.90625 11.613281 15.328125 M 11.613281 17.675781 C 11.613281 18.394531 11.601563 19.070313 11.621094 19.75 C 11.632813 20.109375 11.53125 20.257813 11.136719 20.25 C 10.292969 20.234375 10.292969 20.257813 10.292969 19.417969 C 10.292969 17.519531 10.285156 15.621094 10.304688 13.722656 C 10.304688 13.476563 10.109375 13.109375 10.527344 12.996094 C 10.929688 12.882813 11.171875 13.085938 11.265625 13.523438 C 11.808594 13.074219 12.371094 12.789063 13.050781 12.855469 C 13.5625 12.90625 14.011719 13.113281 14.386719 13.472656 C 15.234375 14.277344 15.417969 15.628906 14.824219 16.683594 C 14.226563 17.753906 13.207031 18.082031 11.613281 17.675781 "/>
<path style=" stroke:none;fill-rule:nonzero;fill:rgb(20.399475%,8.198547%,35.299683%);fill-opacity:1;" d="M 1.953125 15.398438 C 2.359375 14.621094 2.722656 13.925781 3.085938 13.234375 C 3.175781 13.0625 3.238281 12.839844 3.476563 12.847656 C 3.714844 12.855469 3.773438 13.074219 3.863281 13.25 C 4.226563 13.9375 4.589844 14.628906 4.992188 15.398438 C 5.226563 14.679688 5.433594 14.054688 5.640625 13.429688 C 5.765625 13.050781 6.539063 12.796875 6.871094 13.015625 C 7.019531 13.113281 6.957031 13.230469 6.917969 13.34375 C 6.464844 14.742188 6.015625 16.136719 5.5625 17.53125 C 5.511719 17.683594 5.472656 17.855469 5.269531 17.875 C 5.050781 17.894531 4.964844 17.730469 4.882813 17.566406 C 4.429688 16.699219 3.972656 15.828125 3.472656 14.875 C 3 15.773438 2.570313 16.605469 2.128906 17.429688 C 2.027344 17.628906 1.972656 17.910156 1.664063 17.871094 C 1.390625 17.832031 1.398438 17.5625 1.335938 17.371094 C 0.90625 16.058594 0.5 14.742188 0.0546875 13.441406 C -0.078125 13.050781 0.03125 13.003906 0.394531 12.96875 C 0.96875 12.921875 1.28125 13.082031 1.402344 13.6875 C 1.515625 14.238281 1.742188 14.761719 1.953125 15.398438 "/>
<path style=" stroke:none;fill-rule:nonzero;fill:rgb(20.399475%,8.198547%,35.299683%);fill-opacity:1;" d="M 23.382813 15.347656 C 23.371094 14.632813 22.769531 14.015625 22.097656 14.03125 C 21.417969 14.050781 20.839844 14.691406 20.863281 15.398438 C 20.890625 16.097656 21.464844 16.6875 22.121094 16.6875 C 22.796875 16.6875 23.394531 16.054688 23.382813 15.347656 M 22.148438 17.875 C 20.800781 17.886719 19.671875 16.738281 19.671875 15.359375 C 19.675781 14 20.773438 12.863281 22.097656 12.84375 C 23.433594 12.828125 24.574219 13.988281 24.574219 15.363281 C 24.570313 16.71875 23.46875 17.859375 22.148438 17.875 "/>
<path style=" stroke:none;fill-rule:nonzero;fill:rgb(20.399475%,8.198547%,35.299683%);fill-opacity:1;" d="M 17.097656 13.570313 C 17.660156 12.996094 18.238281 12.726563 18.949219 12.890625 C 19.183594 12.945313 19.550781 13 19.390625 13.332031 C 19.246094 13.625 19.339844 14.195313 18.710938 14.105469 C 17.792969 13.976563 17.492188 14.234375 17.492188 15.128906 C 17.492188 15.84375 17.476563 16.558594 17.496094 17.277344 C 17.507813 17.632813 17.371094 17.738281 17.027344 17.742188 C 16.160156 17.753906 16.160156 17.765625 16.160156 16.875 C 16.160156 15.820313 16.148438 14.761719 16.167969 13.707031 C 16.171875 13.457031 15.984375 13.089844 16.410156 12.988281 C 16.804688 12.894531 17.0625 13.066406 17.097656 13.570313 "/>
<path style=" stroke:none;fill-rule:nonzero;fill:rgb(20.399475%,8.198547%,35.299683%);fill-opacity:1;" d="M 9.121094 15.335938 C 9.121094 15.976563 9.109375 16.625 9.128906 17.265625 C 9.136719 17.605469 9.035156 17.773438 8.671875 17.738281 C 8.511719 17.722656 8.351563 17.730469 8.191406 17.738281 C 7.925781 17.75 7.796875 17.652344 7.796875 17.367188 C 7.804688 16.027344 7.804688 14.683594 7.800781 13.34375 C 7.796875 13.097656 7.890625 12.976563 8.144531 12.980469 C 8.339844 12.988281 8.535156 12.992188 8.730469 12.980469 C 9.042969 12.960938 9.132813 13.117188 9.125 13.402344 C 9.113281 14.046875 9.121094 14.691406 9.121094 15.335938 "/>
</g>
</svg>
